<svg id="visual" viewBox="0 0 900 600" width="900" height="600" xmlns="http://www.w3.org/2000/svg" xmlns:xlink="http://www.w3.org/1999/xlink" version="1.1"><rect x="0" y="0" width="900" height="600" fill="#000000"></rect><path d="M0 549L30 551.2C60 553.3 120 557.7 180 549.8C240 542 300 522 360 518.2C420 514.3 480 526.7 540 539.3C600 552 660 565 720 563.5C780 562 840 546 870 538L900 530L900 601L870 601C840 601 780 601 720 601C660 601 600 601 540 601C480 601 420 601 360 601C300 601 240 601 180 601C120 601 60 601 30 601L0 601Z" fill="#a8e6ff" stroke-linecap="round" stroke-linejoin="miter"></path></svg>